<?xml version="1.0" standalone="no"?>
<!DOCTYPE svg PUBLIC "-//W3C//DTD SVG 20010904//EN"
 "http://www.w3.org/TR/2001/REC-SVG-20010904/DTD/svg10.dtd">
<svg version="1.0" xmlns="http://www.w3.org/2000/svg"
 width="512.000000pt" height="512.000000pt" viewBox="0 0 512.000000 512.000000"
 preserveAspectRatio="xMidYMid meet">
<metadata>
Created by potrace 1.11, written by Peter Selinger 2001-2013
</metadata>
<g transform="translate(0.000000,512.000000) scale(0.100000,-0.100000)"
fill="#000000" stroke="none">
<path d="M1520 4241 c-152 -48 -263 -169 -295 -323 -9 -40 -15 -123 -15 -197
l0 -128 -77 -5 c-84 -5 -115 -18 -132 -55 -7 -15 -11 -125 -11 -299 0 -312 3
-325 68 -343 20 -6 63 -11 94 -11 l58 0 2 -827 3 -828 50 -27 c31 -17 66 -28
92 -28 l41 0 4 -136 c4 -184 -10 -174 243 -174 l194 0 20 26 c19 24 21 40 21
155 l0 129 679 0 679 0 4 -136 c4 -184 -10 -174 243 -174 l194 0 20 26 c19 24
21 40 21 155 l0 129 40 0 c42 0 78 13 123 43 l27 18 0 825 0 824 58 0 c31 0
74 5 94 10 68 19 68 21 68 340 0 209 -4 292 -13 310 -16 32 -65 49 -144 49
l-63 1 0 143 c-1 84 -6 165 -14 199 -35 147 -154 268 -305 312 -48 14 -168 16
-1035 15 -902 -1 -985 -2 -1036 -18z m564 -349 l31 -82 31 82 c29 78 33 83 63
86 l31 3 0 -130 c0 -124 -1 -131 -20 -131 -19 0 -20 7 -21 108 l0 107 -31 -82
c-25 -69 -34 -83 -52 -83 -18 0 -27 15 -53 83 l-32 82 -1 -107 c0 -101 -1
-108 -20 -108 -19 0 -20 7 -20 131 l0 130 32 -3 c29 -3 33 -8 62 -86z m379
-35 c26 -68 47 -126 47 -130 0 -4 -9 -7 -19 -7 -13 0 -23 11 -31 35 -11 34
-13 35 -66 35 -52 0 -54 -1 -68 -35 -10 -24 -22 -35 -35 -35 -23 0 -23 0 36
150 17 41 33 83 36 93 4 9 17 17 30 17 21 0 29 -14 70 -123z m197 21 l55 -102
3 102 c2 94 4 102 22 102 19 0 20 -7 20 -130 l0 -130 -28 0 c-26 0 -34 9 -83
101 l-54 101 -3 -101 c-2 -93 -4 -101 -22 -101 -19 0 -20 7 -20 130 l0 130 28
0 c25 0 33 -10 82 -102z m270 0 l55 -102 3 102 c2 94 4 102 22 102 19 0 20 -7
20 -130 l0 -130 -28 0 c-26 0 -34 9 -83 101 l-54 101 -3 -101 c-2 -93 -4 -101
-22 -101 -19 0 -20 7 -20 130 l0 130 28 0 c25 0 33 -10 82 -102z m200 -28 c0
-123 -1 -130 -20 -130 -19 0 -20 7 -20 130 0 123 1 130 20 130 19 0 20 -7 20
-130z m508 -1077 l-3 -778 -1070 0 -1070 0 -3 778 -2 777 1075 0 1075 0 -2
-777z m-1764 -1080 l37 -37 -2 -110 c-1 -110 -1 -110 -34 -143 l-32 -32 -141
0 c-126 0 -143 2 -167 20 -41 33 -55 71 -55 153 0 90 9 116 52 156 l33 29 136
1 136 0 37 -37z m1722 2 l39 -36 4 -90 c3 -102 -7 -137 -50 -174 -28 -23 -36
-24 -165 -24 -195 0 -214 17 -214 187 l0 100 40 36 40 36 134 0 133 0 39 -35z"/>
<path d="M2377 3898 c-33 -79 -33 -78 17 -78 l46 0 -21 53 c-11 28 -22 54 -24
56 -2 2 -10 -12 -18 -31z"/>
</g>
</svg>
