<svg xmlns:xlink="http://www.w3.org/1999/xlink" width="84" xmlns="http://www.w3.org/2000/svg" height="88.914" id="screenshot-30d6a94f-109d-8006-8002-3eb6444c3dd0" viewBox="-22 -22 84 88.914" style="-webkit-print-color-adjust: exact;" fill="none" version="1.1"><g id="shape-30d6a94f-109d-8006-8002-3eb6444c3dd0" rx="0" ry="0"><g id="shape-bbf2e563-3506-80bf-8002-1ae14be26267" rx="0" ry="0"><g id="shape-bbf2e563-3506-80bf-8002-1ae14be26268"><g class="fills" id="fills-bbf2e563-3506-80bf-8002-1ae14be26268"><rect rx="0" ry="0" x="16.056854249492346" y="35.256854249492335" transform="matrix(0.707107, 0.707107, -0.707107, 0.707107, 33.633304, -2.684271)" width="8.000000000000057" height="8" style="fill: rgb(185, 25, 25); fill-opacity: 1;"/></g></g><g id="shape-bbf2e563-3506-80bf-8002-1ae14be26269"><g class="fills" id="fills-bbf2e563-3506-80bf-8002-1ae14be26269"><rect rx="4" ry="4" x="0" y="0" transform="matrix(1.000000, 0.000000, 0.000000, 1.000000, 0.000000, 0.000000)" width="40" height="40" style="fill: rgb(185, 25, 25); fill-opacity: 1;"/></g></g><g id="shape-bbf2e563-3506-80bf-8002-1ae14be2626a"><g class="fills" id="fills-bbf2e563-3506-80bf-8002-1ae14be2626a"><rect rx="4" ry="4" x="3.1999999999999886" y="3.1999999999999886" transform="matrix(1.000000, 0.000000, 0.000000, 1.000000, 0.000000, 0.000000)" width="33.60000000000002" height="33.60000000000002"/></g><g id="strokes-bbf2e563-3506-80bf-8002-1ae14be2626a" class="strokes"><g class="stroke-shape"><rect rx="4" ry="4" x="3.1999999999999886" y="3.1999999999999886" transform="matrix(1.000000, 0.000000, 0.000000, 1.000000, 0.000000, 0.000000)" width="33.60000000000002" height="33.60000000000002" style="fill: none; stroke-width: 2; stroke: rgb(255, 255, 255); stroke-opacity: 1;"/></g></g></g></g><g id="shape-bbf2e563-3506-80bf-8002-1ae14be2626d"><g class="fills" id="fills-bbf2e563-3506-80bf-8002-1ae14be2626d"><path rx="0" ry="0" d="M11.505,34.518C11.100,34.518,10.760,34.381,10.486,34.107C10.212,33.833,10.075,33.494,10.076,33.090L10.076,30.162C9.648,29.686,9.302,29.156,9.040,28.572C8.779,27.989,8.648,27.352,8.648,26.663L8.648,13.094C8.648,11.118,9.564,9.672,11.398,8.755C13.231,7.838,16.124,7.380,20.076,7.381C24.171,7.381,27.100,7.821,28.862,8.702C30.624,9.583,31.505,11.047,31.505,13.094L31.505,26.663C31.505,27.353,31.374,27.990,31.112,28.574C30.850,29.157,30.505,29.687,30.076,30.162L30.076,33.090C30.076,33.495,29.939,33.834,29.665,34.108C29.390,34.382,29.051,34.519,28.648,34.518L27.219,34.518C26.814,34.518,26.475,34.381,26.200,34.107C25.926,33.833,25.790,33.494,25.790,33.090L25.790,31.662L14.362,31.662L14.362,33.090C14.362,33.495,14.225,33.834,13.950,34.108C13.676,34.382,13.337,34.519,12.933,34.518L11.505,34.518ZL11.505,34.518ZM11.505,18.807L28.648,18.807L28.648,14.522L11.505,14.522L11.505,18.807ZL11.505,18.807ZM15.076,27.377C15.671,27.377,16.178,27.168,16.595,26.751C17.012,26.334,17.220,25.829,17.219,25.234C17.219,24.639,17.010,24.133,16.593,23.716C16.176,23.299,15.670,23.091,15.076,23.092C14.481,23.092,13.975,23.300,13.558,23.718C13.140,24.135,12.932,24.640,12.933,25.234C12.933,25.829,13.142,26.336,13.559,26.753C13.976,27.170,14.482,27.378,15.076,27.377ZL15.076,27.377ZM25.076,27.377C25.671,27.377,26.178,27.168,26.595,26.751C27.012,26.334,27.220,25.829,27.219,25.234C27.219,24.639,27.010,24.133,26.593,23.716C26.176,23.299,25.670,23.091,25.076,23.092C24.481,23.092,23.975,23.300,23.558,23.718C23.140,24.135,22.932,24.640,22.933,25.234C22.933,25.829,23.142,26.336,23.559,26.753C23.976,27.170,24.482,27.378,25.076,27.377ZL25.076,27.377Z" style="fill: rgb(255, 255, 255); fill-opacity: 1;"/></g></g></g></svg>